/* XPM */
static char *icon_xpm[] = {
"32 32 50 1",
"A	c #000000",
"B	c #00000C",
"C	c #00001F",
"D	c #000036",
"E	c #000056",
"F	c #00007A",
"G	c #000093",
"H	c #00009C",
"I	c #0000A9",
"J	c #0000B3",
"K	c #0000BD",
"L	c #0000CD",
"M	c #0000D4",
"N	c #0000DB",
"O	c #0000E4",
"P	c #000F00",
"Q	c #001F00",
"R	c #003000",
"S	c #003F00",
"T	c #004C00",
"U	c #005800",
"V	c #006300",
"W	c #006F00",
"X	c #008200",
"Y	c #009A00",
"Z	c #00A900",
"a	c #00B800",
"b	c #00C400",
"c	c #00CC00",
"d	c #00DB00",
"e	c #0C0000",
"f	c #140000",
"g	c #1C0000",
"h	c #290000",
"i	c #330000",
"j	c #450000",
"k	c #500000",
"l	c #640000",
"m	c #6E0000",
"n	c #930000",
"o	c #9E0000",
"p	c #A50000",
"q	c #B10000",
"r	c #BE0000",
"s	c #CC0000",
"t	c #D40000",
"u	c #DC0000",
"v	c #E40000",
"w	c #AFAFAF",
" 	c None",
"  AAAAAAAAAAAAAGLMOEAAAAAXRAAA  ",
" AAwwwAAAAAAAAGLNODAAAAAUdZAAAA ",
"AAwwwwwAAAAAAELONCAAAARAAbdUAAAA",
"AwwwwwwwAAAAGINLBAAAPZbPATdbPAAA",
"AwwwwwwwAAAGLOJAAAAAAZdWAAZdXAAA",
"AwwwwwwwAAGMOKAAAAAAARddQARddQAA",
"AAwwwwwAAGNOJAAAATAAAAYdYAAXdYAA",
"AAAwwwAAHNOIAAAAWdSAAAQcdRAPcdSA",
"AAAAAAANONIAAAAAUdZAAAAWdYAAVdaA",
"AAAAAAGOOOAAAAAAAbdRAAAAbdPAAadT",
"AAAAAGLOLBAAAAAAAWdYAAAAXdTAASXA",
"AAAAGMOKAAAARTRAAPcdRAAAWdWAAAAA",
"AAAGNOJAAAQZdddbRAWdWAAAZdTAAAAe",
"AAEOOIAAAQbdcZbZPARdZAPYdaAAAAnt",
"AHNNIAAAAZdYPAAPUAAbdZcdbQAAAnuv",
"IOLFAAAATdaAAAPYdSAScddYQAAAnuvt",
"OMIAAAAAXdUAAQaddZAAPSQAAAAnuvtj",
"LIAAAAAAYdRAAPbZadUAAAAAAAnuushA",
"IAAAAAAAXdTAAAQAVdZAAAAAAluuqfAA",
"AAAAAAAAUdYAAAAAadVAAAAApvuoAAAA",
"ATAAAAQAPcdTAAAYdaAAAAAqvumAAAAA",
"WdUAPZdbQUddXUZdcRAAAArvukAAAAAA",
"TdbPXdddYAWddddbRAAAArvuiAAAAAAA",
"AZdXdZRcdRARXYVPAAAAovvgAAAAAAAA",
"ARdddRAVdZAAAAAAAAAuvufAAAwwwAAA",
"AAXddPAAadUAAAAAAApvunAAAwwwwwAA",
"AAPcdTAATdbAAAAAAqvumAAAwwwwwwwA",
"AAAVdaAAAYUAAAAArvukAAAAwwwwwwwA",
"AAAAadVAAAAAAAetuuiAAAAAwwwwwwwA",
"AAAASdcPAAAAAfsvtfAAAAAAAwwwwwAA",
" AAAAYYPAAAAivuufAAAAAAAAAwwwAA ",
"  AAAPAAAAAkvvteAAAAAAAAAAAAAA  "
};
